<svg xmlns="http://www.w3.org/2000/svg" xmlns:xlink="http://www.w3.org/1999/xlink" width="260" zoomAndPan="magnify" viewBox="0 0 194.87999 44.999999" height="60" preserveAspectRatio="xMidYMid meet" version="1.0"><defs><g/><clipPath id="87edee4e49"><path d="M 0 3 L 194.761719 3 L 194.761719 44.984375 L 0 44.984375 Z M 0 3 " clip-rule="nonzero"/></clipPath><clipPath id="6880b3df9e"><rect x="0" width="195" y="0" height="42"/></clipPath></defs><g clip-path="url(#87edee4e49)"><g transform="matrix(1, 0, 0, 1, 0, 3)"><g clip-path="url(#6880b3df9e)"><g fill="#000000" fill-opacity="1"><g transform="translate(0, 32.025645)"><g><path d="M 2.125 -29.296875 L 12.828125 -29.296875 C 15.804688 -29.296875 18.21875 -28.523438 20.0625 -26.984375 C 21.914062 -25.453125 22.84375 -23.21875 22.84375 -20.28125 C 22.84375 -17.34375 21.90625 -15.039062 20.03125 -13.375 C 18.15625 -11.707031 15.753906 -10.875 12.828125 -10.875 L 8.8125 -10.875 L 8.8125 0 L 2.125 0 Z M 8.8125 -16.1875 L 10.6875 -16.1875 C 12.175781 -16.1875 13.398438 -16.488281 14.359375 -17.09375 C 15.316406 -17.695312 15.796875 -18.6875 15.796875 -20.0625 C 15.796875 -21.457031 15.316406 -22.457031 14.359375 -23.0625 C 13.398438 -23.664062 12.175781 -23.96875 10.6875 -23.96875 L 8.8125 -23.96875 Z M 8.8125 -16.1875 "/></g></g></g><g fill="#000000" fill-opacity="1"><g transform="translate(21.948145, 32.025645)"><g><path d="M 3.84375 -2.15625 C 1.820312 -3.957031 0.8125 -6.265625 0.8125 -9.078125 C 0.8125 -11.898438 1.863281 -14.21875 3.96875 -16.03125 C 6.082031 -17.84375 8.691406 -18.75 11.796875 -18.75 C 14.847656 -18.75 17.421875 -17.835938 19.515625 -16.015625 C 21.609375 -14.191406 22.65625 -11.882812 22.65625 -9.09375 C 22.65625 -6.300781 21.628906 -4 19.578125 -2.1875 C 17.535156 -0.375 14.941406 0.53125 11.796875 0.53125 C 8.523438 0.53125 5.875 -0.363281 3.84375 -2.15625 Z M 8.71875 -12.171875 C 7.90625 -11.367188 7.5 -10.335938 7.5 -9.078125 C 7.5 -7.828125 7.890625 -6.804688 8.671875 -6.015625 C 9.453125 -5.222656 10.476562 -4.828125 11.75 -4.828125 C 12.988281 -4.828125 14.003906 -5.226562 14.796875 -6.03125 C 15.585938 -6.84375 15.984375 -7.863281 15.984375 -9.09375 C 15.984375 -10.34375 15.570312 -11.367188 14.75 -12.171875 C 13.9375 -12.984375 12.9375 -13.390625 11.75 -13.390625 C 10.539062 -13.390625 9.53125 -12.984375 8.71875 -12.171875 Z M 8.71875 -12.171875 "/></g></g></g><g fill="#000000" fill-opacity="1"><g transform="translate(45.352471, 32.025645)"><g><path d="M 2.734375 -28.375 C 3.460938 -29.113281 4.335938 -29.484375 5.359375 -29.484375 C 6.378906 -29.484375 7.253906 -29.113281 7.984375 -28.375 C 8.722656 -27.644531 9.09375 -26.769531 9.09375 -25.75 C 9.09375 -24.726562 8.722656 -23.847656 7.984375 -23.109375 C 7.253906 -22.378906 6.378906 -22.015625 5.359375 -22.015625 C 4.335938 -22.015625 3.460938 -22.378906 2.734375 -23.109375 C 2.003906 -23.847656 1.640625 -24.726562 1.640625 -25.75 C 1.640625 -26.769531 2.003906 -27.644531 2.734375 -28.375 Z M 2.125 -18.21875 L 2.125 0 L 8.421875 0 L 8.421875 -18.21875 Z M 2.125 -18.21875 "/></g></g></g><g fill="#000000" fill-opacity="1"><g transform="translate(56.077982, 32.025645)"><g><path d="M 23.234375 0 L 15.625 0 L 11.609375 -5.15625 L 7.59375 0 L 0 0 L 7.78125 -9.515625 L 1.09375 -18.21875 L 8.453125 -18.21875 L 11.609375 -14 L 14.78125 -18.21875 L 22.125 -18.21875 L 15.453125 -9.515625 Z M 23.234375 0 "/></g></g></g><g fill="#000000" fill-opacity="1"><g transform="translate(79.304737, 32.025645)"><g><path d="M 20.5625 -8.234375 L 7.359375 -8.234375 C 7.359375 -6.960938 7.769531 -6.015625 8.59375 -5.390625 C 9.425781 -4.773438 10.328125 -4.46875 11.296875 -4.46875 C 12.316406 -4.46875 13.117188 -4.601562 13.703125 -4.875 C 14.296875 -5.15625 14.972656 -5.695312 15.734375 -6.5 L 20.28125 -4.21875 C 18.382812 -1.050781 15.234375 0.53125 10.828125 0.53125 C 8.085938 0.53125 5.734375 -0.40625 3.765625 -2.28125 C 1.796875 -4.164062 0.8125 -6.429688 0.8125 -9.078125 C 0.8125 -11.734375 1.796875 -14.007812 3.765625 -15.90625 C 5.734375 -17.800781 8.085938 -18.75 10.828125 -18.75 C 13.722656 -18.75 16.070312 -17.914062 17.875 -16.25 C 19.6875 -14.582031 20.59375 -12.195312 20.59375 -9.09375 C 20.59375 -8.664062 20.582031 -8.378906 20.5625 -8.234375 Z M 7.53125 -11.71875 L 14.453125 -11.71875 C 14.304688 -12.664062 13.929688 -13.394531 13.328125 -13.90625 C 12.734375 -14.414062 11.960938 -14.671875 11.015625 -14.671875 C 9.972656 -14.671875 9.140625 -14.394531 8.515625 -13.84375 C 7.898438 -13.300781 7.570312 -12.59375 7.53125 -11.71875 Z M 7.53125 -11.71875 "/></g></g></g><g fill="#000000" fill-opacity="1"><g transform="translate(100.72023, 32.025645)"><g/></g></g><g fill="#000000" fill-opacity="1"><g transform="translate(110.415807, 32.025645)"><g><path d="M 2.125 -29.296875 L 10.625 -29.296875 C 14.695312 -29.296875 18.175781 -27.90625 21.0625 -25.125 C 23.945312 -22.34375 25.390625 -18.859375 25.390625 -14.671875 C 25.390625 -10.453125 23.953125 -6.953125 21.078125 -4.171875 C 18.203125 -1.390625 14.71875 0 10.625 0 L 2.125 0 Z M 8.8125 -5.96875 L 9.84375 -5.96875 C 12.28125 -5.96875 14.273438 -6.789062 15.828125 -8.4375 C 17.378906 -10.082031 18.164062 -12.144531 18.1875 -14.625 C 18.1875 -17.113281 17.410156 -19.1875 15.859375 -20.84375 C 14.304688 -22.5 12.300781 -23.328125 9.84375 -23.328125 L 8.8125 -23.328125 Z M 8.8125 -5.96875 "/></g></g></g><g fill="#000000" fill-opacity="1"><g transform="translate(136.625813, 32.025645)"><g><path d="M 3.84375 -2.15625 C 1.820312 -3.957031 0.8125 -6.265625 0.8125 -9.078125 C 0.8125 -11.898438 1.863281 -14.21875 3.96875 -16.03125 C 6.082031 -17.84375 8.691406 -18.75 11.796875 -18.75 C 14.847656 -18.75 17.421875 -17.835938 19.515625 -16.015625 C 21.609375 -14.191406 22.65625 -11.882812 22.65625 -9.09375 C 22.65625 -6.300781 21.628906 -4 19.578125 -2.1875 C 17.535156 -0.375 14.941406 0.53125 11.796875 0.53125 C 8.523438 0.53125 5.875 -0.363281 3.84375 -2.15625 Z M 8.71875 -12.171875 C 7.90625 -11.367188 7.5 -10.335938 7.5 -9.078125 C 7.5 -7.828125 7.890625 -6.804688 8.671875 -6.015625 C 9.453125 -5.222656 10.476562 -4.828125 11.75 -4.828125 C 12.988281 -4.828125 14.003906 -5.226562 14.796875 -6.03125 C 15.585938 -6.84375 15.984375 -7.863281 15.984375 -9.09375 C 15.984375 -10.34375 15.570312 -11.367188 14.75 -12.171875 C 13.9375 -12.984375 12.9375 -13.390625 11.75 -13.390625 C 10.539062 -13.390625 9.53125 -12.984375 8.71875 -12.171875 Z M 8.71875 -12.171875 "/></g></g></g><g fill="#000000" fill-opacity="1"><g transform="translate(160.101173, 32.025645)"><g><path d="M 11.828125 -13.609375 C 10.640625 -13.609375 9.617188 -13.164062 8.765625 -12.28125 C 7.921875 -11.40625 7.5 -10.351562 7.5 -9.125 C 7.5 -7.875 7.921875 -6.804688 8.765625 -5.921875 C 9.617188 -5.046875 10.640625 -4.609375 11.828125 -4.609375 C 12.390625 -4.609375 12.925781 -4.679688 13.4375 -4.828125 C 13.945312 -4.972656 14.320312 -5.113281 14.5625 -5.25 L 14.875 -5.46875 L 17.015625 -1.09375 C 16.847656 -0.976562 16.613281 -0.832031 16.3125 -0.65625 C 16.019531 -0.476562 15.347656 -0.238281 14.296875 0.0625 C 13.242188 0.375 12.113281 0.53125 10.90625 0.53125 C 8.226562 0.53125 5.875 -0.40625 3.84375 -2.28125 C 1.820312 -4.164062 0.8125 -6.425781 0.8125 -9.0625 C 0.8125 -11.707031 1.820312 -13.984375 3.84375 -15.890625 C 5.875 -17.796875 8.226562 -18.75 10.90625 -18.75 C 12.113281 -18.75 13.222656 -18.609375 14.234375 -18.328125 C 15.253906 -18.046875 15.976562 -17.757812 16.40625 -17.46875 L 17.015625 -17.046875 L 14.875 -12.75 C 14.09375 -13.320312 13.078125 -13.609375 11.828125 -13.609375 Z M 11.828125 -13.609375 "/></g></g></g><g fill="#000000" fill-opacity="1"><g transform="translate(177.396931, 32.025645)"><g><path d="M 10.046875 -18.75 C 11.085938 -18.75 12.117188 -18.628906 13.140625 -18.390625 C 14.160156 -18.160156 14.914062 -17.925781 15.40625 -17.6875 L 16.15625 -17.328125 L 14.09375 -13.21875 C 12.675781 -13.96875 11.328125 -14.34375 10.046875 -14.34375 C 9.335938 -14.34375 8.832031 -14.265625 8.53125 -14.109375 C 8.238281 -13.960938 8.09375 -13.675781 8.09375 -13.25 C 8.09375 -13.15625 8.101562 -13.0625 8.125 -12.96875 C 8.15625 -12.875 8.203125 -12.785156 8.265625 -12.703125 C 8.335938 -12.617188 8.40625 -12.546875 8.46875 -12.484375 C 8.53125 -12.421875 8.628906 -12.351562 8.765625 -12.28125 C 8.910156 -12.21875 9.023438 -12.164062 9.109375 -12.125 C 9.191406 -12.09375 9.328125 -12.039062 9.515625 -11.96875 C 9.703125 -11.894531 9.84375 -11.835938 9.9375 -11.796875 C 10.039062 -11.765625 10.203125 -11.710938 10.421875 -11.640625 C 10.648438 -11.578125 10.820312 -11.53125 10.9375 -11.5 C 11.675781 -11.289062 12.316406 -11.054688 12.859375 -10.796875 C 13.398438 -10.535156 13.972656 -10.179688 14.578125 -9.734375 C 15.179688 -9.285156 15.648438 -8.71875 15.984375 -8.03125 C 16.316406 -7.34375 16.484375 -6.5625 16.484375 -5.6875 C 16.484375 -1.539062 13.601562 0.53125 7.84375 0.53125 C 6.539062 0.53125 5.300781 0.332031 4.125 -0.0625 C 2.957031 -0.46875 2.113281 -0.875 1.59375 -1.28125 L 0.8125 -1.921875 L 3.375 -6.21875 C 3.5625 -6.050781 3.804688 -5.851562 4.109375 -5.625 C 4.421875 -5.40625 4.976562 -5.097656 5.78125 -4.703125 C 6.59375 -4.316406 7.296875 -4.125 7.890625 -4.125 C 9.191406 -4.125 9.84375 -4.5625 9.84375 -5.4375 C 9.84375 -5.832031 9.675781 -6.144531 9.34375 -6.375 C 9.007812 -6.601562 8.445312 -6.859375 7.65625 -7.140625 C 6.863281 -7.421875 6.238281 -7.679688 5.78125 -7.921875 C 4.644531 -8.515625 3.742188 -9.179688 3.078125 -9.921875 C 2.421875 -10.671875 2.09375 -11.660156 2.09375 -12.890625 C 2.09375 -14.734375 2.804688 -16.171875 4.234375 -17.203125 C 5.671875 -18.234375 7.609375 -18.75 10.046875 -18.75 Z M 10.046875 -18.75 "/></g></g></g></g></g></g></svg>