<?xml version="1.0" standalone="no"?>
<!DOCTYPE svg PUBLIC "-//W3C//DTD SVG 20010904//EN"
 "http://www.w3.org/TR/2001/REC-SVG-20010904/DTD/svg10.dtd">
<svg version="1.0" xmlns="http://www.w3.org/2000/svg"
 width="1000.000000pt" height="71.000000pt" viewBox="0 0 1000.000000 71.000000"
 preserveAspectRatio="xMidYMid meet">

<g transform="translate(0.000000,71.000000) scale(0.100000,-0.100000)"
fill="#000000" stroke="none">
<path d="M61 653 c14 -16 148 -162 298 -325 l272 -298 86 0 86 0 -19 23 c-11
12 -69 76 -129 142 -61 66 -118 130 -128 141 -17 21 -16 23 128 180 l146 159
-83 3 -83 3 -107 -113 -108 -113 -107 113 -108 113 -84 -1 -85 0 25 -27z"/>
<path d="M166 173 l-126 -138 81 -3 c93 -3 84 -9 189 108 l68 75 -43 48 -43
47 -126 -137z"/>
</g>
</svg>
